# xmcd CD database file
#
# Track frame offsets:
#	150
#	11357
#	20188
#	39565
#	53288
#	66205
#	80545
#	92405
#	97328
#	125745
#	137662
#	144003
#	152082
#	157704
#	169203
#	181673
#	195020
#	203981
#
# Disc length: 2921 seconds
#
# Revision: 1
# Processed by: cddbd v1.5.2PL0 Copyright (c) Steve Scherf et al.
# Submitted via: CDex 1.51
#
DISCID=dd0b6712
DTITLE=Fats Waller - Performance - Radio Recordings From 1931 to 1943 [CD2]
DYEAR=2010
DGENRE=Jazz
TTITLE0=I Simply Adore You
TTITLE1=Handful of Keys
TTITLE2=Honolulu Bundle
TTITLE3=Watcha Know, Joe?
TTITLE4=Oh! Susannah
TTITLE5=B Flat Blues
TTITLE6=The Spider and the Fly
TTITLE7=Waller Jive
TTITLE8=I've Got a Feeling I'm Falling
TTITLE9=I Wish I Were Twins
TTITLE10=Baby Brown
TTITLE11=How Can You Face Me
TTITLE12=Don't Let It Bother You
TTITLE13=California Here I Come
TTITLE14=The Joint Is Jumping
TTITLE15=Your Feets Too Big
TTITLE16=This Is Nice It Must Be Illegal
TTITLE17=Dark Eyes
EXTD=YEAR: 2010
EXTT0=
EXTT1=
EXTT2=
EXTT3=
EXTT4=
EXTT5=
EXTT6=
EXTT7=
EXTT8=
EXTT9=
EXTT10=
EXTT11=
EXTT12=
EXTT13=
EXTT14=
EXTT15=
EXTT16=
EXTT17=
PLAYORDER=
